<svg xmlns="http://www.w3.org/2000/svg" viewBox="0 0 600 433.5"><ellipse cx="300" cy="233.5" rx="79.5" ry="13.4" opacity=".1" fill="#231f20"/><linearGradient id="a" gradientUnits="userSpaceOnUse" x1="299.999" y1="173.895" x2="299.999" y2="-46.815"><stop offset="0" stop-color="#00b9cc"/><stop offset=".178" stop-color="#00cae8"/><stop offset=".269" stop-color="#05cbe6"/><stop offset=".371" stop-color="#12cee1"/><stop offset=".478" stop-color="#29d2d8"/><stop offset=".589" stop-color="#48d9cc"/><stop offset=".703" stop-color="#71e1bc"/><stop offset=".819" stop-color="#a2eca9"/><stop offset=".935" stop-color="#dcf893"/><stop offset="1" stop-color="#ffff85"/></linearGradient><path d="M303.9 94.2h-14.5v25.7h14.5c10 0 15.7-4.3 15.7-13.1-.1-8.5-5.7-12.6-15.7-12.6zm59-49.2h18.5l-14.5-28h-5.6l-9-17H247.6l-8.9 17h-5.6l-14.5 28h18.6l3.6 25.7h-5.6l11.5 93.6h7.2l5.5 39h81.1l5.5-39h7.2l11.5-93.6h-5.5l3.7-25.7zm-133.3-7.1l6.9-13.9h57.7l4.4-7h-52.1l4.9-10h97l5 10h-19.3l4.4 7h24.8l6.9 13.9H229.6zm105.3 158.4H265l-4.4-32h78.7l-4.4 32zm-56.5-45.9v-66h25.9c16.3 0 25.7 8.1 25.7 22.2 0 14.7-9.4 23.2-25.7 23.2h-14.9v20.7h-11zm73.8-79.7H247.7L244.2 45h111.5l-3.5 25.7z" fill="url(#a)"/><path d="M39.4 305.2c24.9 0 39.2 12.6 39.2 34.1 0 22.3-14.3 35.6-39.2 35.6H16.6v31.7H0V305.2h39.4zm-22.8 54.7h22.1c15.3 0 23.9-6.7 23.9-20.1 0-13-8.6-19.4-23.9-19.4H16.6v39.5zm86.3-16.1c6.3-9.1 14.2-12.7 26.1-12.7V346c-15-.8-24.5 8.1-26.1 20.9v39.6H87.1v-72.8h15.8v10.1zm113.2 89.7h16.6v-37.3s6.2 6.5 15.3 9c3.4 1.1 7 1.6 11.1 1.6 21.5 0 35.6-15.4 35.6-37.9 0-22.9-14.6-38.5-35.9-38.5-5.6 0-10.6 1.1-14.8 3.2l.2-.1c-6.3 2.9-11.4 8.4-11.4 8.4v-8.3h-16.6v99.9zm39.2-40.5c-13.4 0-22.9-10.1-22.9-24.6 0-14.1 9.5-24.3 22.9-24.3 13.4 0 22.9 10.3 22.9 24.3 0 14.4-9.4 24.6-22.9 24.6zm183.3-55l-5.9 12c-6.6-4.1-15-6.6-21.6-6.6-6.4 0-11 2.1-11 7.5 0 13.9 40 6.4 39.9 33.6 0 15.4-13.7 22.3-28.8 22.3-11 0-22.8-3.7-30.2-10.5l5.8-11.6c6.5 5.8 17 9.3 25.2 9.3 6.9 0 12.3-2.4 12.3-8.1 0-15.4-39.6-6.8-39.4-33.9 0-15.3 13.3-21.8 27.7-21.8 9.2.2 19.2 3 26 7.8zm66.4-13v8.7h12.6l5.6 13.5H505v59.4h-15.8v-59.4h-10.3v-13.5h10.3v-7.2c0-17.5 12.6-26.1 25.7-26.1h8.4v14.2h-8c-5.6.1-10.3 3.3-10.3 10.4zm-165.5 5.4c-21.1 0-38.2 17.1-38.2 38.2s17.1 38.2 38.2 38.2 38.2-17.1 38.2-38.2-17.1-38.2-38.2-38.2zm0 60.4c-12.3 0-22.3-10-22.3-22.3s10-22.3 22.3-22.3 22.3 10 22.3 22.3c0 12.4-10 22.3-22.3 22.3zm-169.3-60.1c-21.1 0-38.2 17.1-38.2 38.2s17.1 38.2 38.2 38.2 38.2-17.1 38.2-38.2-17.1-38.2-38.2-38.2zm0 60.5c-12.3 0-22.3-10-22.3-22.3s10-22.3 22.3-22.3 22.3 10 22.3 22.3-10 22.3-22.3 22.3zm371.6 27.2h-10.6v15h11.3c11.3 0 19.8-5.2 24.4-17.1l33.1-82.6h-16.2L564 387.9l-21.4-54.1h-16.8l28.4 67.6s1.2 4-.1 7.6c-1.5 3.8-4.4 9.4-12.3 9.4zM452 406.6v-72.8h15.8v72.8H452z" fill="#00b8d1"/><path d="M429.2 295.1l9.6-12.3s17.4 18.1 21.3 26c0 0 19.2-34.5 48.1-59.2l9.4 15s-30 18.9-57.6 58.7c-.1 0-7.3-10.2-30.8-28.2" fill-rule="evenodd" clip-rule="evenodd" fill="#83db77"/></svg>